<?xml version="1.0" standalone="no"?>
<!DOCTYPE svg PUBLIC "-//W3C//DTD SVG 20010904//EN"
 "http://www.w3.org/TR/2001/REC-SVG-20010904/DTD/svg10.dtd">
<svg version="1.0" xmlns="http://www.w3.org/2000/svg"
 width="300.000000pt" height="300.000000pt" viewBox="0 0 300.000000 300.000000"
 preserveAspectRatio="xMidYMid meet">
<metadata>
Created by potrace 1.11, written by Peter Selinger 2001-2013
</metadata>
<g transform="translate(0.000000,300.000000) scale(0.100000,-0.100000)"
fill="#000000" stroke="none">
<path d="M1 2825 l1 -176 42 6 c38 6 44 4 48 -13 6 -22 -17 -39 -27 -22 -4 6
-19 10 -36 10 -26 0 -29 -3 -29 -34 0 -19 6 -37 13 -40 10 -5 9 -7 -1 -12 -17
-8 -17 -254 0 -254 9 0 9 -3 0 -12 -15 -15 -16 -28 -2 -28 6 0 10 7 10 15 0 8
7 15 17 15 14 0 14 -2 -2 -20 -18 -20 -18 -21 1 -35 10 -8 15 -15 10 -15 -5 0
-18 7 -28 17 -15 13 -18 14 -18 2 0 -8 5 -20 12 -27 8 -8 8 -12 1 -12 -14 0
-16 -107 -3 -115 7 -4 6 -13 0 -25 -5 -10 -10 -48 -10 -84 0 -73 8 -80 64 -51
35 18 40 19 26 3 -35 -41 -59 -83 -50 -86 15 -5 -8 -32 -26 -32 -16 0 -19 -37
-3 -42 15 -5 17 -84 2 -81 -8 2 -13 -8 -13 -27 0 -24 4 -30 21 -30 14 0 19 -6
17 -17 -1 -10 1 -24 6 -32 7 -11 4 -13 -15 -8 -20 5 -24 2 -25 -18 -2 -27 6
-31 24 -13 9 9 12 5 12 -19 0 -17 6 -34 13 -36 6 -3 2 -6 -10 -6 -17 -1 -23
-7 -23 -25 0 -14 -5 -28 -10 -31 -6 -3 -10 -19 -10 -36 0 -28 1 -28 18 -11 10
9 17 19 15 21 -1 2 2 10 8 18 15 17 43 18 32 1 -4 -7 -8 -19 -9 -26 -1 -7 -8
-20 -15 -28 -7 -9 -15 -25 -16 -37 -3 -20 -1 -19 25 6 48 46 59 27 16 -30 -41
-54 -31 -68 51 -70 39 -1 114 -7 167 -14 54 -6 113 -8 132 -5 32 6 35 10 46
59 6 29 14 60 17 70 3 11 -2 17 -14 18 -10 0 -13 3 -6 6 7 2 16 4 19 3 11 -2
42 85 65 184 20 85 21 90 4 102 -10 7 -22 15 -27 16 -16 6 -22 86 -8 103 11
13 7 21 -25 50 -21 19 -41 35 -46 35 -15 0 -10 28 6 34 8 3 15 14 15 25 0 25
20 71 32 71 4 0 8 6 8 14 0 17 -24 27 -47 20 -11 -4 -14 -3 -7 3 9 7 12 29 18
143 1 14 7 24 14 23 7 -2 11 0 11 5 -1 4 -1 21 0 37 2 28 3 29 11 8 5 -13 14
-23 20 -23 12 0 13 23 1 36 -18 18 18 97 61 135 l40 35 -11 180 c-6 98 -14
230 -18 292 l-6 112 -203 0 c-167 -1 -203 -3 -208 -15 -3 -8 -12 -15 -20 -15
-7 0 -16 -6 -19 -14 -3 -8 -16 -20 -28 -26 -21 -12 -21 -12 -3 14 11 14 22 26
27 26 4 0 7 7 7 15 0 11 -11 15 -40 15 -22 0 -40 -4 -40 -10 0 -5 -9 -10 -20
-10 -11 0 -20 5 -20 10 0 6 -7 10 -15 10 -12 0 -15 -27 -14 -175z m93 149 c3
-8 2 -12 -4 -9 -6 3 -10 10 -10 16 0 14 7 11 14 -7z m-11 -28 c4 -10 1 -13 -9
-9 -15 6 -19 23 -5 23 5 0 11 -7 14 -14z m-43 -26 c0 -5 -4 -10 -10 -10 -5 0
-10 5 -10 10 0 6 5 10 10 10 6 0 10 -4 10 -10z m21 -28 c-6 -11 -8 -27 -5 -36
4 -11 0 -13 -16 -9 -14 4 -17 8 -10 13 6 4 10 11 8 16 -3 10 24 45 30 39 2 -2
-1 -12 -7 -23z m149 -32 c0 -5 -7 -10 -16 -10 -8 0 -12 5 -9 10 3 6 10 10 16
10 5 0 9 -4 9 -10z m268 -2 c-2 -6 -10 -14 -16 -16 -7 -2 -10 2 -6 12 7 18 28
22 22 4z m-273 -27 c3 -5 1 -12 -4 -15 -5 -3 -11 1 -15 9 -6 16 9 21 19 6z
m165 -15 c0 -3 -4 -8 -10 -11 -5 -3 -10 -1 -10 4 0 6 5 11 10 11 6 0 10 -2 10
-4z m-288 -18 c-9 -9 -15 -9 -24 0 -9 9 -7 12 12 12 19 0 21 -3 12 -12z m18
-48 c0 -5 -9 -10 -20 -10 -11 0 -20 5 -20 10 0 6 9 10 20 10 11 0 20 -4 20
-10z m161 -12 c1 -7 1 -18 0 -25 -1 -6 6 -13 16 -15 13 -3 10 -6 -9 -10 -15
-3 -26 -2 -25 2 1 5 -2 8 -8 8 -5 1 -9 -8 -8 -19 2 -10 -2 -19 -8 -19 -5 0 -9
-7 -7 -16 2 -10 -3 -19 -10 -21 -7 -3 -10 1 -6 10 5 13 -1 14 -33 6 -51 -12
-53 -11 -53 7 0 11 5 14 16 10 17 -7 47 17 36 29 -4 5 0 6 9 2 13 -4 16 -1 12
14 -4 15 -2 18 11 13 11 -4 16 -1 16 11 0 11 5 15 15 11 8 -3 15 -1 15 4 0 15
20 12 21 -2z m313 6 c25 -9 19 -24 -9 -24 -24 0 -32 10 -18 23 8 8 8 8 27 1z
m-108 -122 c1 -20 -7 -27 -29 -23 -4 1 -10 -6 -13 -14 -11 -27 -27 -16 -20 13
12 49 60 68 62 24z m-379 -28 c-3 -3 -12 -4 -19 -1 -8 3 -5 6 6 6 11 1 17 -2
13 -5z m83 -34 c0 -11 5 -20 10 -20 6 0 10 -9 10 -21 0 -15 -4 -19 -16 -15 -9
3 -19 6 -24 6 -5 0 -12 9 -15 20 -5 15 -12 19 -26 15 -26 -9 -24 8 4 21 36 19
57 16 57 -6z m340 -179 c0 -6 -4 -13 -10 -16 -5 -3 -10 1 -10 9 0 9 5 16 10
16 6 0 10 -4 10 -9z m-347 -22 c-4 -15 -11 -19 -27 -15 -11 3 -25 6 -31 7 -5
0 6 7 25 14 19 7 36 14 37 14 0 1 -1 -8 -4 -20z m92 -15 c9 3 15 0 15 -8 0 -8
7 -16 15 -20 23 -9 18 -20 -17 -35 -30 -13 -32 -13 -55 13 -19 22 -21 31 -12
47 8 16 13 18 25 9 7 -7 21 -10 29 -6z m-205 -44 c0 -5 -7 -10 -15 -10 -8 0
-15 5 -15 10 0 6 7 10 15 10 8 0 15 -4 15 -10z m103 -116 c6 -6 -28 -44 -39
-44 -4 0 -12 -8 -19 -17 -11 -15 -13 -13 -11 14 1 33 16 59 16 30 0 -9 5 -17
11 -17 6 0 9 6 6 14 -8 22 19 37 36 20z m37 -4 c0 -5 -2 -10 -4 -10 -3 0 -8 5
-11 10 -3 6 -1 10 4 10 6 0 11 -4 11 -10z m-125 -9 c7 -12 -12 -24 -25 -16
-11 7 -4 25 10 25 5 0 11 -4 15 -9z m260 -201 c3 -10 13 -21 23 -24 9 -4 30
-14 47 -23 28 -16 29 -16 7 -24 -12 -5 -29 -6 -37 -3 -8 4 -15 1 -15 -5 0 -6
-5 -11 -12 -11 -6 0 -9 3 -5 6 3 4 0 21 -8 39 -7 19 -11 36 -7 39 3 4 -8 4
-24 0 -21 -4 -34 -1 -43 9 -10 13 -9 15 7 10 11 -2 23 0 26 6 9 14 34 3 41
-19z m105 9 c0 -11 -3 -11 -24 -3 -23 9 -20 23 4 17 11 -3 20 -9 20 -14z
m-220 -9 c0 -5 -5 -10 -11 -10 -5 0 -7 5 -4 10 3 6 8 10 11 10 2 0 4 -4 4 -10z
m147 -132 c-3 -8 -6 -5 -6 6 -1 11 2 17 5 13 3 -3 4 -12 1 -19z m-297 -68 c0
-5 -4 -10 -10 -10 -5 0 -10 5 -10 10 0 6 5 10 10 10 6 0 10 -4 10 -10z m364
-48 c-6 -4 -14 -17 -18 -29 -5 -15 -15 -23 -29 -22 l-22 0 22 11 c12 6 23 19
26 29 3 11 11 19 19 19 9 0 9 -3 2 -8z m-244 -39 l35 -14 -44 6 c-50 6 -61 11
-61 27 0 6 7 7 18 3 9 -4 33 -14 52 -22z m-80 -38 c-7 -9 -15 -13 -17 -11 -6
6 20 36 26 30 2 -2 -2 -10 -9 -19z m130 -41 c0 -8 -5 -12 -10 -9 -6 4 -8 11
-5 16 9 14 15 11 15 -7z m-150 -52 c0 -13 -12 -22 -22 -16 -10 6 -1 24 13 24
5 0 9 -4 9 -8z m175 -2 c3 -5 1 -10 -4 -10 -6 0 -11 5 -11 10 0 6 2 10 4 10 3
0 8 -4 11 -10z m215 -120 c0 -5 -2 -10 -4 -10 -3 0 -8 5 -11 10 -3 6 -1 10 4
10 6 0 11 -4 11 -10z m-325 -65 c-24 -37 -31 -33 -19 12 5 18 31 35 42 27 2
-1 -8 -19 -23 -39z"/>
<path d="M236 2295 c4 -8 9 -15 13 -15 4 0 8 7 8 15 0 8 -6 15 -13 15 -8 0
-11 -6 -8 -15z"/>
<path d="M634 2888 c23 -406 29 -460 45 -455 9 3 61 25 116 48 l100 43 147 1
147 0 6 35 c9 61 25 290 25 366 l0 74 -296 0 -297 0 7 -112z"/>
<path d="M1299 2981 c6 -10 24 -24 41 -29 27 -10 30 -9 30 9 0 11 -4 18 -9 14
-5 -3 -16 2 -24 10 -9 8 -23 15 -32 15 -12 0 -14 -4 -6 -19z"/>
<path d="M1408 2989 c-23 -13 -23 -47 -1 -71 15 -17 15 -18 -1 -18 -9 0 -14 5
-11 10 6 9 -22 15 -54 11 -7 -2 -11 2 -8 6 3 5 -3 14 -13 21 -15 9 -21 8 -32
-5 -11 -15 -11 -16 4 -10 10 3 20 2 23 -3 4 -6 0 -10 -8 -10 -7 0 -23 -11 -35
-25 -19 -22 -23 -44 -32 -187 -6 -89 -12 -166 -13 -172 -3 -17 75 -24 95 -8
11 9 18 10 23 3 3 -6 1 -11 -4 -11 -25 0 -8 -19 22 -25 17 -4 48 -16 68 -25
19 -10 73 -26 119 -34 46 -9 87 -21 91 -27 4 -7 12 -8 19 -4 8 5 9 10 2 14 -7
4 -4 15 8 31 15 21 27 25 64 24 25 0 52 -6 60 -13 12 -10 17 -7 32 18 27 46
108 57 154 21 30 -23 49 -25 56 -5 3 8 26 17 52 21 52 8 101 -12 127 -53 13
-20 21 -22 55 -17 56 9 88 -2 128 -43 l35 -37 246 13 c135 6 263 14 284 17
l37 6 0 299 -1 299 -85 0 c-68 0 -84 -3 -84 -15 0 -8 -4 -15 -10 -15 -5 0 -10
7 -10 15 0 13 -34 15 -248 15 -180 0 -251 -3 -260 -12 -9 -9 -12 -9 -12 0 0
16 -321 17 -337 1 -8 -8 -13 -8 -17 0 -9 15 -504 15 -528 0z m468 -105 c-7
-19 21 -18 32 1 6 11 8 6 8 -17 0 -30 -3 -33 -33 -35 -18 -1 -31 3 -28 8 4 5
1 9 -4 9 -6 0 -11 -5 -11 -11 0 -5 -5 -7 -12 -3 -8 5 -5 13 10 24 12 10 19 20
16 23 -3 3 -3 11 1 16 9 16 28 2 21 -15z m-401 6 c3 -5 1 -10 -4 -10 -6 0 -11
5 -11 10 0 6 2 10 4 10 3 0 8 -4 11 -10z m202 -76 c-9 -9 -28 6 -21 18 4 6 10
6 17 -1 6 -6 8 -13 4 -17z m-367 -52 c0 -5 -10 -17 -22 -28 -12 -10 -19 -14
-16 -9 3 6 8 18 11 28 6 17 27 24 27 9z m338 -19 c-5 -22 -21 -20 -23 4 -1 14
3 19 12 16 8 -3 13 -12 11 -20z m1069 21 c-3 -3 -12 -4 -19 -1 -8 3 -5 6 6 6
11 1 17 -2 13 -5z m-1027 -244 c0 -5 -5 -10 -11 -10 -5 0 -7 5 -4 10 3 6 8 10
11 10 2 0 4 -4 4 -10z m-45 -19 c3 -5 1 -12 -5 -16 -5 -3 -10 1 -10 9 0 18 6
21 15 7z"/>
<path d="M1256 2971 c-4 -5 -2 -20 3 -33 9 -21 10 -21 10 10 1 32 -3 39 -13
23z"/>
<path d="M810 2459 c-198 -81 -230 -105 -240 -177 -6 -47 -5 -50 14 -45 12 3
29 6 38 6 9 1 15 4 13 7 -12 20 300 101 326 85 19 -13 -2 -23 -63 -29 -123
-14 -336 -99 -377 -152 -27 -34 -28 -95 -3 -117 25 -22 32 -21 72 8 19 14 40
23 48 20 7 -2 11 -1 8 4 -6 10 103 46 182 61 30 5 57 12 61 14 21 13 92 23 88
13 -4 -14 -65 -35 -172 -58 -176 -37 -305 -125 -305 -208 0 -67 43 -90 93 -51
36 29 121 66 192 85 72 19 245 30 245 16 0 -11 -35 -18 -135 -25 -185 -13
-362 -118 -353 -210 4 -42 29 -41 131 5 218 98 363 86 492 -42 l51 -49 119 33
c148 42 165 50 259 133 46 40 80 63 87 58 7 -4 9 -3 6 3 -4 6 2 18 12 27 11
10 29 41 42 69 41 93 27 234 -37 374 -26 57 -21 55 -219 106 -33 8 -80 23
-105 32 -83 31 -188 45 -333 44 -141 -1 -143 -1 -237 -40z"/>
<path d="M1871 2477 c-35 -18 -34 -45 3 -102 46 -70 43 -63 67 -151 27 -100
39 -269 18 -262 -10 3 -16 31 -21 93 -9 115 -33 214 -67 267 -15 24 -30 51
-34 60 -7 21 -45 46 -86 58 -24 6 -35 5 -47 -7 -8 -9 -13 -21 -10 -27 2 -6 16
-37 30 -68 14 -32 23 -58 20 -58 -3 0 1 -7 10 -15 8 -8 22 -49 32 -91 32 -145
2 -257 -93 -351 l-46 -45 23 -95 c23 -98 64 -212 78 -222 5 -3 34 -37 67 -76
77 -93 87 -102 145 -131 40 -20 65 -25 124 -25 89 0 137 12 233 57 66 32 72
37 88 82 9 26 20 70 25 97 4 28 22 88 39 135 38 107 51 191 51 345 0 114 -2
124 -36 210 -52 133 -95 214 -127 241 -29 24 -81 32 -92 14 -4 -6 12 -56 33
-113 41 -105 70 -240 59 -271 -12 -31 -25 -8 -32 56 -8 70 -49 204 -89 288
-45 94 -92 131 -151 116 -43 -11 -48 -38 -16 -88 31 -49 66 -141 76 -203 4
-22 16 -73 27 -113 20 -68 19 -98 -1 -76 -11 11 -45 127 -61 205 -6 30 -24 84
-41 120 -64 135 -128 182 -198 146z"/>
<path d="M2615 2349 c-195 -13 -181 4 -119 -151 l54 -133 0 -132 c0 -107 3
-133 14 -133 8 0 58 -4 112 -9 55 -5 150 -12 212 -16 l112 -6 0 295 0 296
-127 -1 c-71 -1 -186 -6 -258 -10z"/>
<path d="M2535 1723 c-3 -27 -20 -86 -35 -133 -16 -47 -36 -114 -44 -150 -9
-36 -18 -75 -22 -87 -5 -17 -2 -23 9 -23 28 0 47 -30 47 -75 0 -24 -4 -47 -10
-50 -13 -8 -13 -25 1 -25 18 0 41 -29 54 -68 14 -39 8 -65 -25 -112 -19 -26
-19 -27 1 -40 22 -16 34 -68 25 -105 -4 -14 -22 -43 -41 -64 -30 -32 -33 -43
-29 -73 8 -47 -12 -105 -38 -114 -19 -6 -20 -11 -13 -122 4 -64 9 -128 10
-142 2 -14 7 -96 11 -183 l7 -157 279 0 278 1 0 116 c0 99 -3 118 -17 129 -17
13 -17 13 0 14 15 0 17 14 17 153 0 106 -4 157 -12 165 -9 9 -9 12 0 12 8 0
12 18 12 50 0 41 -3 50 -17 50 -17 1 -17 1 0 11 16 9 17 45 17 524 l0 513
-107 6 c-60 4 -152 11 -206 16 -152 15 -144 17 -152 -37z m106 -1046 c-13 -13
-26 -3 -16 12 3 6 11 8 17 5 6 -4 6 -10 -1 -17z m-51 -433 c0 -8 5 -14 11 -14
8 0 8 -5 -1 -15 -11 -13 -8 -15 15 -15 16 0 26 -3 23 -6 -13 -12 -95 8 -106
27 -17 26 -9 36 28 37 20 0 30 -4 30 -14z m-40 -144 c0 -5 -4 -10 -10 -10 -5
0 -10 5 -10 10 0 6 5 10 10 10 6 0 10 -4 10 -10z m17 -22 c-3 -7 -5 -2 -5 12
0 14 2 19 5 13 2 -7 2 -19 0 -25z"/>
<path d="M1559 1720 c-38 -33 -116 -73 -169 -86 -8 -2 -46 -11 -85 -20 -38 -9
-72 -18 -74 -20 -3 -3 9 -19 26 -37 46 -48 83 -131 124 -279 7 -27 18 -48 24
-48 5 0 24 15 42 34 l31 35 -41 14 c-30 10 -37 15 -24 20 9 3 17 2 17 -3 0 -6
13 -10 29 -10 16 0 31 -6 33 -12 4 -10 14 -8 44 5 21 10 49 19 62 22 49 9 172
49 172 56 0 4 -10 16 -23 26 -12 10 -29 34 -37 53 -8 19 -22 44 -32 54 -10 11
-18 28 -18 38 0 27 -42 198 -49 198 -3 -1 -26 -18 -52 -40z m41 -210 c0 -5 -7
-7 -16 -3 -10 4 -17 -1 -21 -16 -3 -11 -9 -21 -13 -21 -10 0 -8 20 3 38 10 14
47 16 47 2z m15 -86 c-23 -23 -55 -27 -55 -7 0 11 74 50 78 41 2 -4 -8 -19
-23 -34z m-90 -54 c-3 -5 -12 -10 -18 -10 -7 0 -6 4 3 10 19 12 23 12 15 0z
m45 -10 c0 -5 -7 -10 -15 -10 -8 0 -15 5 -15 10 0 6 7 10 15 10 8 0 15 -4 15
-10z m40 6 c0 -3 -4 -8 -10 -11 -5 -3 -10 -1 -10 4 0 6 5 11 10 11 6 0 10 -2
10 -4z"/>
<path d="M801 1735 c-30 -9 -82 -29 -117 -46 -74 -35 -84 -52 -109 -180 -8
-43 -22 -93 -30 -109 -36 -69 -58 -201 -59 -350 l-1 -145 48 -120 c74 -183
114 -235 181 -235 37 0 40 18 15 76 -56 128 -100 334 -71 334 7 0 13 -10 16
-22 25 -143 40 -199 72 -279 21 -52 46 -103 56 -113 10 -11 18 -23 18 -26 0
-4 12 -13 26 -21 42 -22 114 -5 114 27 0 8 -14 39 -31 69 -34 61 -52 115 -75
222 -8 40 -21 88 -29 107 -18 43 -18 46 -1 46 20 0 43 -67 70 -198 28 -137
102 -259 171 -282 73 -24 120 36 77 98 -70 98 -113 271 -103 415 3 43 19 1 25
-65 3 -40 11 -100 17 -133 13 -68 77 -211 108 -239 24 -22 90 -46 108 -39 15
6 18 64 4 78 -5 6 -26 51 -47 100 -35 83 -38 97 -38 190 -1 120 15 161 94 249
61 65 60 58 5 233 -25 79 -44 120 -70 150 -19 23 -35 43 -35 45 0 16 -124 131
-160 149 -58 29 -172 35 -249 14z"/>
<path d="M1680 1325 c-149 -40 -193 -63 -290 -152 -19 -17 -49 -44 -67 -60
-99 -88 -109 -259 -25 -445 25 -53 30 -58 82 -77 30 -10 71 -22 90 -26 19 -4
83 -22 141 -40 126 -40 226 -55 360 -55 97 0 103 1 242 56 87 34 158 68 180
87 43 37 62 86 42 113 -12 17 -19 15 -116 -23 -109 -43 -188 -63 -251 -62 -51
1 -39 16 20 24 83 12 165 35 250 71 45 19 87 32 92 29 6 -4 9 -3 8 2 -2 5 13
23 32 40 29 26 35 38 35 71 0 26 -7 48 -19 61 l-19 21 -31 -21 c-30 -20 -90
-49 -111 -54 -5 -1 -22 -7 -37 -13 -14 -6 -55 -16 -90 -22 -34 -7 -87 -20
-115 -30 -61 -21 -84 -8 -28 16 20 8 84 26 143 40 135 32 218 71 271 129 43
47 50 74 29 120 -16 34 -57 33 -109 -4 -56 -41 -177 -79 -286 -88 -91 -9 -157
-2 -103 10 14 3 66 11 116 16 166 20 298 82 335 158 25 52 18 83 -17 83 -14 0
-58 -16 -97 -35 -162 -78 -304 -86 -412 -22 -33 19 -76 51 -94 71 -19 20 -42
36 -50 35 -9 0 -54 -11 -101 -24z"/>
<path d="M0 894 l0 -297 148 7 c176 8 404 26 414 32 5 3 1 18 -7 33 -7 15 -32
74 -54 130 -40 100 -41 103 -41 231 0 114 -2 129 -18 134 -25 8 -285 26 -369
26 l-73 0 0 -296z"/>
<path d="M428 592 c-29 -2 -48 -8 -52 -18 -7 -17 6 -18 22 -2 9 9 12 8 12 -5
0 -9 -4 -17 -9 -17 -5 0 -7 -8 -5 -17 3 -10 -2 -27 -11 -38 -16 -20 -16 -20
-11 4 2 13 -1 29 -7 35 -15 15 -50 29 -42 17 3 -5 2 -17 -1 -26 -5 -12 -9 -14
-15 -4 -4 7 -3 23 2 36 8 22 6 23 -29 23 -20 0 -44 -5 -52 -11 -12 -8 -10 -9
7 -4 13 3 28 3 34 0 15 -10 -20 -33 -42 -28 -9 3 -20 0 -23 -6 -10 -16 -23
-13 -30 6 -4 9 -2 20 5 23 6 4 -2 8 -17 8 -43 0 -59 -16 -38 -39 16 -18 16
-19 -2 -21 -10 0 -27 -1 -37 0 -9 1 -17 -5 -17 -14 0 -9 5 -12 12 -8 7 4 2 -9
-10 -30 -29 -50 -21 -57 20 -17 34 33 51 40 42 16 -4 -8 -10 -15 -15 -15 -13
0 -64 -52 -72 -72 -3 -10 -11 -18 -17 -18 -5 0 -10 -7 -10 -15 0 -8 -4 -15
-10 -15 -6 0 -10 -26 -10 -59 0 -46 4 -60 17 -65 14 -6 32 8 33 25 0 9 80 49
80 40 0 -4 -3 -11 -7 -15 -5 -4 -8 -18 -8 -29 0 -13 -6 -21 -13 -19 -7 1 -29
-9 -48 -22 -35 -24 -36 -24 -14 -36 23 -12 23 -35 -1 -35 -8 0 -15 -10 -17
-22 -2 -13 -8 -23 -13 -23 -5 0 -9 -4 -9 -10 0 -5 7 -10 15 -10 8 0 15 -4 15
-8 0 -4 9 -8 21 -9 15 -1 19 2 15 14 -4 10 -2 14 8 10 10 -4 13 -1 9 10 -4 11
-1 14 13 11 13 -2 20 -13 22 -34 l3 -31 64 1 c59 1 64 3 59 20 -5 15 -3 18 11
13 9 -4 21 -7 26 -7 5 0 9 -8 10 -17 0 -11 3 -13 6 -5 5 14 63 17 63 3 0 -5
226 -9 529 -9 l530 -1 3 22 c4 29 22 28 26 -1 3 -21 8 -22 96 -22 58 0 96 4
104 12 17 17 15 28 -7 28 -23 0 -47 25 -32 35 6 3 18 2 27 -3 9 -5 26 -7 37
-4 21 5 21 -4 2 -50 -5 -14 -2 -18 13 -18 14 0 21 9 26 31 7 37 -7 67 -37 79
l-22 9 22 0 c12 1 23 6 25 12 2 5 11 7 21 4 9 -4 14 -11 11 -16 -3 -5 2 -12
11 -15 10 -4 12 -10 6 -18 -5 -6 -12 -28 -16 -49 -7 -36 -7 -37 23 -37 l31 0
0 63 c0 34 0 64 1 67 1 3 3 26 5 51 5 95 17 225 22 247 4 18 1 22 -19 22 -32
0 -174 37 -215 56 -18 8 -72 22 -120 31 -48 8 -93 20 -100 25 -9 7 -16 0 -27
-25 -17 -41 -41 -48 -104 -30 -23 7 -40 8 -37 4 3 -5 -9 -21 -26 -35 -37 -32
-80 -34 -132 -6 -39 21 -67 26 -67 11 0 -12 -55 -25 -93 -24 -29 2 -97 46 -97
64 0 5 -9 9 -20 9 -11 0 -20 -6 -20 -14 0 -16 -34 -31 -50 -21 -6 3 -10 -3
-10 -15 0 -17 -4 -21 -17 -16 -9 4 -20 1 -25 -6 -5 -9 -8 -8 -8 5 0 11 9 21
20 24 11 3 20 12 20 20 0 9 -6 13 -15 9 -8 -3 -15 -1 -15 5 0 6 -5 7 -11 3 -7
-4 -10 1 -7 12 2 11 -7 29 -20 41 -25 23 -36 24 -174 15z m-178 -121 c-12 -24
-13 -42 -1 -22 6 9 11 10 15 2 4 -6 0 -14 -8 -17 -21 -8 -20 -34 0 -34 9 0 22
7 28 16 12 15 46 10 46 -7 0 -5 5 -9 10 -9 6 0 10 9 10 20 0 11 4 20 9 20 10
0 8 -67 -3 -77 -3 -3 -6 -1 -6 5 0 7 -9 12 -19 12 -11 0 -23 5 -26 10 -9 15
-25 12 -25 -5 0 -7 -8 -18 -17 -24 -10 -5 -14 -13 -10 -17 5 -5 11 -4 15 2 5
9 38 11 60 5 1 -1 -2 -10 -8 -21 -8 -15 -17 -19 -32 -14 -17 5 -20 3 -15 -10
4 -9 2 -26 -3 -38 -7 -18 -9 -19 -9 -5 -1 21 -43 24 -60 4 -15 -19 -3 -28 25
-21 14 4 24 2 24 -5 0 -6 -7 -8 -15 -5 -8 4 -15 1 -15 -5 0 -15 -43 -7 -48 9
-4 10 -6 9 -13 -1 -6 -10 -9 -8 -9 9 0 15 6 22 19 22 11 0 23 5 27 11 5 8 -1
10 -20 7 -23 -5 -26 -2 -26 24 0 39 18 71 36 64 16 -6 20 19 4 29 -6 4 -7 11
-4 17 4 6 9 5 15 -3 12 -21 20 -5 11 22 -7 18 -5 27 7 36 26 20 44 16 31 -6z
m335 9 c3 -5 2 -10 -4 -10 -5 0 -13 5 -16 10 -3 6 -2 10 4 10 5 0 13 -4 16
-10z m-274 -33 c-16 -16 -25 -1 -10 16 8 8 16 11 18 5 2 -5 -2 -15 -8 -21z
m89 13 c0 -5 -2 -10 -4 -10 -3 0 -8 5 -11 10 -3 6 -1 10 4 10 6 0 11 -4 11
-10z m310 0 c0 -5 -4 -10 -10 -10 -5 0 -10 5 -10 10 0 6 5 10 10 10 6 0 10 -4
10 -10z m-99 -43 c4 -5 12 -6 18 -3 6 4 14 0 17 -8 8 -21 -24 -51 -51 -48 -23
3 -41 -21 -29 -39 8 -13 32 -11 36 3 3 7 12 9 23 4 18 -6 17 -9 -10 -31 -23
-19 -26 -24 -12 -25 26 0 21 -27 -6 -27 -13 -1 -35 -12 -50 -27 -33 -33 -43
-33 -41 2 2 39 2 39 27 46 l22 7 -22 11 c-26 12 -31 38 -8 38 8 0 15 7 15 15
0 8 -5 15 -11 15 -6 0 -9 10 -7 23 2 15 9 21 21 19 9 -2 17 2 17 8 0 5 -7 10
-15 10 -8 0 -15 7 -15 15 0 13 7 15 38 9 20 -4 40 -11 43 -17z m995 -54 c-10
-10 -19 5 -10 18 6 11 8 11 12 0 2 -7 1 -15 -2 -18z m-1129 -5 c-3 -8 -6 -5
-6 6 -1 11 2 17 5 13 3 -3 4 -12 1 -19z m-94 -51 c18 -18 18 -19 -3 -12 -13 4
-31 0 -46 -10 -30 -19 -42 -14 -19 8 8 9 15 19 15 24 0 16 35 9 53 -10z m-193
-107 c0 -5 -7 -10 -16 -10 -8 0 -12 5 -9 10 3 6 10 10 16 10 5 0 9 -4 9 -10z
m140 -4 c0 -3 -4 -8 -10 -11 -5 -3 -10 -1 -10 4 0 6 5 11 10 11 6 0 10 -2 10
-4z m-240 -25 c0 -12 -20 -25 -27 -18 -7 7 6 27 18 27 5 0 9 -4 9 -9z m17 -58
c-9 -9 -19 -14 -23 -11 -10 10 6 28 24 28 15 0 15 -1 -1 -17z m183 -59 c0 -8
-4 -12 -10 -9 -5 3 -10 13 -10 21 0 8 5 12 10 9 6 -3 10 -13 10 -21z"/>
<path d="M30 554 c11 -13 10 -16 -8 -21 -15 -3 -22 -13 -22 -29 0 -28 3 -29
36 -7 19 12 22 18 12 24 -9 6 -7 9 8 9 12 0 24 6 27 14 6 15 -12 26 -45 26
-17 0 -18 -2 -8 -16z"/>
<path d="M2285 528 c-203 -89 -205 -90 -322 -87 -57 2 -106 0 -109 -4 -7 -7
-33 -302 -34 -384 l0 -53 295 0 295 0 0 58 c0 31 -7 151 -15 267 -8 116 -15
216 -15 223 0 17 -16 14 -95 -20z"/>
<path d="M0 400 c0 -5 7 -10 15 -10 8 0 15 5 15 10 0 6 -7 10 -15 10 -8 0 -15
-4 -15 -10z"/>
</g>
</svg>
